<?xml version="1.0" encoding="utf-8"?>
<!-- Generator: Adobe Illustrator 27.5.0, SVG Export Plug-In . SVG Version: 6.00 Build 0)  -->
<svg version="1.1" xmlns="http://www.w3.org/2000/svg" xmlns:xlink="http://www.w3.org/1999/xlink" x="0px" y="0px"
	 viewBox="0 0 750 500" style="enable-background:new 0 0 750 500;" xml:space="preserve">
<g id="BACKGROUND">
	<rect style="fill:#F1F1F2;" width="750" height="500"/>
</g>
<g id="OBJECTS">
	<g>
		<defs>
			<rect id="SVGID_1_" width="750" height="500"/>
		</defs>
		<clipPath id="SVGID_00000083800589732642258260000011988902475751668414_">
			<use xlink:href="#SVGID_1_"  style="overflow:visible;"/>
		</clipPath>
		<path style="opacity:0.28;clip-path:url(#SVGID_00000083800589732642258260000011988902475751668414_);fill:#C2C6CA;" d="
			M443.5,470.5c-34.219,11.919-64.308,54,94,54C562.58,524.5,532.5,439.5,443.5,470.5z"/>
		<path style="opacity:0.37;clip-path:url(#SVGID_00000083800589732642258260000011988902475751668414_);fill:#C2C6CA;" d="
			M387.5-6.373c-17.213,7.172,65,58.873,159,5.873C562.169-9.334,402.02-12.423,387.5-6.373z"/>
		<g style="clip-path:url(#SVGID_00000083800589732642258260000011988902475751668414_);">
			<g>
				<g>
					<path style="fill:#FFFFFF;" d="M170.03,472.801c4.015,3.249,8.343,5.953,13.061,8.061c1.748,0.781,3.276-1.803,1.514-2.59
						c-4.472-1.998-8.645-4.509-12.454-7.592C170.663,469.476,168.528,471.586,170.03,472.801L170.03,472.801z"/>
				</g>
			</g>
			<g>
				<g>
					<path style="fill:#FFFFFF;" d="M187.609,477.159c3.898,1.882,7.795,3.764,11.693,5.646c1.731,0.836,3.254-1.75,1.514-2.59
						c-3.898-1.882-7.795-3.764-11.693-5.646C187.392,473.733,185.869,476.319,187.609,477.159L187.609,477.159z"/>
				</g>
			</g>
			<g>
				<g>
					<path style="fill:#FFFFFF;" d="M188.949,489.316c2.952,0.683,5.616,1.97,7.928,3.939c1.462,1.245,3.594-0.867,2.121-2.121
						c-2.699-2.3-5.791-3.91-9.252-4.711C187.868,485.989,187.066,488.88,188.949,489.316L188.949,489.316z"/>
				</g>
			</g>
			<g>
				<g>
					<path style="fill:#FFFFFF;" d="M206.227,492.289c2.494,0.763,4.988,1.526,7.482,2.289c1.85,0.566,2.641-2.329,0.798-2.893
						c-2.494-0.763-4.988-1.526-7.482-2.289C205.174,488.83,204.383,491.725,206.227,492.289L206.227,492.289z"/>
				</g>
			</g>
			<g>
				<g>
					<path style="fill:#FFFFFF;" d="M223.31,491.599c3.923,1.139,7.846,2.278,11.768,3.417c1.858,0.539,2.651-2.355,0.798-2.893
						c-3.923-1.139-7.846-2.278-11.768-3.417C222.249,488.167,221.456,491.061,223.31,491.599L223.31,491.599z"/>
				</g>
			</g>
		</g>
		<g style="clip-path:url(#SVGID_00000083800589732642258260000011988902475751668414_);">
			<g>
				<g>
					<path style="fill:#FFFFFF;" d="M328.96,24.723c3.583,0,7.166,0,10.749,0c1.93,0,1.934-3,0-3c-3.583,0-7.166,0-10.749,0
						C327.029,21.723,327.026,24.723,328.96,24.723L328.96,24.723z"/>
				</g>
			</g>
			<g>
				<g>
					<path style="fill:#FFFFFF;" d="M340.286,16.174c2.584-0.853,5.219-1.113,7.91-0.657c1.888,0.321,2.7-2.57,0.798-2.893
						c-3.225-0.548-6.391-0.371-9.505,0.657C337.663,13.883,338.445,16.781,340.286,16.174L340.286,16.174z"/>
				</g>
			</g>
			<g>
				<g>
					<path style="fill:#FFFFFF;" d="M359.357,7.974c2.15,0,4.3,0,6.45,0c1.93,0,1.934-3,0-3c-2.15,0-4.3,0-6.45,0
						C357.427,4.974,357.424,7.974,359.357,7.974L359.357,7.974z"/>
				</g>
			</g>
			<g>
				<g>
					<path style="fill:#FFFFFF;" d="M362.582,17.648c2.15,0,4.3,0,6.45,0c1.93,0,1.934-3,0-3c-2.15,0-4.3,0-6.45,0
						C360.652,14.648,360.648,17.648,362.582,17.648L362.582,17.648z"/>
				</g>
			</g>
			<g>
				<g>
					<path style="fill:#FFFFFF;" d="M380.468,12.187c3.267,1.066,6.637,1.455,10.06,1.142c1.907-0.174,1.925-3.176,0-3
						c-3.179,0.29-6.227-0.044-9.262-1.035C379.426,8.694,378.638,11.59,380.468,12.187L380.468,12.187z"/>
				</g>
			</g>
		</g>
		<g style="clip-path:url(#SVGID_00000083800589732642258260000011988902475751668414_);">
			<g>
				<path style="fill:#FFFFFF;" d="M132.662,413.103c-30.875-6.793-55.608-31.585-61.219-62.89
					c-2.655-14.814-2.234-30.241-1.159-45.187c1.152-16.017,3.383-31.998,6.772-47.697c2.406-11.147,5.307-21.981,6.728-33.328
					c1.499-11.961,2.348-23.998,4.183-35.917c4.398-28.57,15.909-54.041,36.882-74.332c43.528-42.111,107.603-58.036,166.11-64.585
					c16.553-1.853,33.305-1.91,49.812-4.006c28.982-3.679,56.06-15.54,81.492-29.432c54.318-29.671,106.846-72.27,171.307-74.899
					c36.913-1.505,73.846,9.803,104.745,29.775c30.706,19.848,55.165,47.606,75.985,77.354c10.68,15.26,22.487,31.866,21.721,51.367
					c-0.412,10.5-3.681,20.61-5.799,30.832c-1.932,9.327-2.815,18.803-3.542,28.288c-1.492,19.473-3.708,38.317-10.159,56.851
					c-6.046,17.37-14.546,33.795-24.165,49.437c-19.243,31.29-42.64,60.102-65.833,88.515
					c-22.173,27.163-46.332,53.461-76.598,71.747c-34.086,20.594-74.239,30.435-111.914,42.326
					c-19.648,6.201-39.313,12.348-59.005,18.406c-19.21,5.909-38.509,11.787-58.329,15.301
					c-39.66,7.033-79.085,0.234-117.068-11.877c-33.774-10.769-66.098-26.227-95.371-46.255
					c-13.936-9.535-27.111-20.12-39.44-31.656c-0.704-0.659-1.767,0.399-1.061,1.061c25.68,24.031,55.118,43.81,86.817,59.008
					c33.136,15.887,69.224,27.736,105.725,32.541c19.995,2.632,39.991,2.231,59.86-1.213c20.47-3.549,40.38-9.651,60.203-15.752
					c40.427-12.443,81.143-24.474,121.081-38.419c18.086-6.315,35.861-13.713,52.12-23.941
					c15.027-9.453,28.686-20.919,41.258-33.421c25.414-25.272,47.455-54.305,69.088-82.807
					c22.399-29.511,43.907-60.986,55.398-96.543c5.948-18.406,7.572-37.063,9.12-56.232c0.908-11.243,2.535-22.214,5.132-33.187
					c2.202-9.302,4.562-18.82,3.917-28.458c-1.194-17.83-12.422-33.229-22.34-47.354c-10.112-14.403-21.002-28.3-33.11-41.087
					c-24.741-26.128-54.753-47.058-89.256-57.95c-33.8-10.67-69.578-10.807-103.392-0.223
					c-30.153,9.438-57.633,25.593-84.558,41.787c-27.602,16.601-55.217,33.974-85.635,45.025
					c-14.9,5.413-30.436,9.203-46.272,10.381c-6.176,0.459-12.369,0.684-18.548,1.11c-54.36,3.747-111.141,14.342-158.403,42.738
					c-26.656,16.015-49.995,38.334-61.375,67.768c-9.141,23.644-9.374,48.868-13.061,73.615c-1.922,12.896-5.767,25.389-8.06,38.224
					c-2.862,16.011-4.729,32.253-5.271,48.513c-0.465,13.936-0.261,28.466,3.619,41.968c3.928,13.67,11.662,26.209,21.996,35.97
					c10.752,10.156,24.051,17.017,38.471,20.19C133.204,414.756,133.606,413.31,132.662,413.103L132.662,413.103z"/>
			</g>
		</g>
		<path style="opacity:0.37;clip-path:url(#SVGID_00000083800589732642258260000011988902475751668414_);fill:#C2C6CA;" d="
			M766.5,210.5c-34-9-46-39-39-61s24-39,33-28S766.5,210.5,766.5,210.5z"/>
		<path style="clip-path:url(#SVGID_00000083800589732642258260000011988902475751668414_);fill:#FFFFFF;" d="M576.5,22.5
			c-70.082,31.537,43,98,68,180c25.432,83.416,104-80,72-132S616.5,4.5,576.5,22.5z"/>
		<g style="clip-path:url(#SVGID_00000083800589732642258260000011988902475751668414_);">
			<g>
				<g>
					<path style="fill:#FFFFFF;" d="M715.218,27.023c2.393,2.164,4.248,4.728,5.566,7.671c0.394,0.88,1.687,0.117,1.295-0.757
						c-1.366-3.051-3.322-5.734-5.801-7.975C715.564,25.316,714.5,26.374,715.218,27.023L715.218,27.023z"/>
				</g>
			</g>
			<g>
				<g>
					<path style="fill:#FFFFFF;" d="M723.654,26.998c2.375,3.471,3.958,7.245,4.769,11.372c0.186,0.946,1.632,0.546,1.446-0.399
						c-0.833-4.239-2.48-8.166-4.92-11.731C724.407,25.449,723.107,26.198,723.654,26.998L723.654,26.998z"/>
				</g>
			</g>
			<g>
				<g>
					<path style="fill:#FFFFFF;" d="M722.229,15.316c2.134,0.934,3.967,2.278,5.493,4.038c0.633,0.731,1.691-0.334,1.061-1.061
						c-1.6-1.845-3.559-3.293-5.797-4.273C722.111,13.637,721.346,14.929,722.229,15.316L722.229,15.316z"/>
				</g>
			</g>
			<g>
				<g>
					<path style="fill:#FFFFFF;" d="M733.687,28.722c0.938,1.634,1.877,3.267,2.816,4.901c0.481,0.837,1.777,0.082,1.295-0.757
						c-0.939-1.634-1.877-3.267-2.816-4.901C734.501,27.128,733.205,27.882,733.687,28.722L733.687,28.722z"/>
				</g>
			</g>
			<g>
				<g>
					<path style="fill:#FFFFFF;" d="M739.288,49.584c-0.35,1.905-0.034,3.775,0.986,5.429c0.506,0.82,1.804,0.067,1.295-0.757
						c-0.801-1.298-1.112-2.766-0.835-4.273C740.908,49.039,739.463,48.634,739.288,49.584L739.288,49.584z"/>
				</g>
			</g>
			<g>
				<g>
					<path style="fill:#FFFFFF;" d="M742.197,40.859c-0.35,1.905-0.035,3.775,0.986,5.429c0.506,0.82,1.804,0.067,1.295-0.757
						c-0.801-1.298-1.112-2.766-0.835-4.273C743.817,40.314,742.371,39.909,742.197,40.859L742.197,40.859z"/>
				</g>
			</g>
			<g>
				<g>
					<path style="fill:#FFFFFF;" d="M733.778,12.348c1.586,1.644,3.173,3.288,4.759,4.932c0.672,0.696,1.731-0.365,1.061-1.061
						c-1.586-1.644-3.173-3.288-4.759-4.932C734.167,10.591,733.107,11.653,733.778,12.348L733.778,12.348z"/>
				</g>
			</g>
			<g>
				<g>
					<path style="fill:#FFFFFF;" d="M711.683,5.755c1.936,0.34,3.872,0.68,5.808,1.019c0.944,0.166,1.349-1.28,0.399-1.446
						c-1.936-0.34-3.872-0.68-5.808-1.019C711.138,4.143,710.733,5.588,711.683,5.755L711.683,5.755z"/>
				</g>
			</g>
			<g>
				<g>
					<path style="fill:#FFFFFF;" d="M709.403,15.389c1.486,1.385,3.331,2.149,5.362,2.219c0.965,0.033,0.964-1.467,0-1.5
						c-1.63-0.056-3.107-0.667-4.301-1.78C709.758,13.671,708.695,14.729,709.403,15.389L709.403,15.389z"/>
				</g>
			</g>
		</g>
		<g style="clip-path:url(#SVGID_00000083800589732642258260000011988902475751668414_);">
			<g>
				<path style="fill:#D0D4D7;" d="M655.683,16.688c19.214,5.639,35.724,17.551,48.698,32.645
					c13.392,15.58,26.255,35.993,24.579,57.317c-1.766,22.478-15.482,43.318-28.847,60.748
					c-11.615,15.148-31.016,41.155-53.183,35.645c-21.863-5.434-25.169-32.896-33.184-50.018
					c-8.945-19.11-24.67-33.776-36.237-51.173c-9.707-14.599-16.209-32.559-11.922-50.176c2.812-11.556,10.626-20.664,20.747-26.623
					C605.888,13.539,633.853,10.644,655.683,16.688c0.932,0.258,1.329-1.189,0.399-1.446c-20.901-5.787-46.706-3.283-66.134,6.178
					c-10.45,5.089-19.513,13.109-23.94,24.051c-5.892,14.564-3.223,31.77,3.484,45.548c10.309,21.179,28.83,36.866,40.205,57.375
					c9.772,17.618,11.459,43.765,31.354,54.001c19.518,10.042,38.068-8.222,49.999-21.664
					c15.013-16.913,29.516-36.869,36.349-58.658c3.701-11.799,4.397-24.184,0.575-36.045c-3.759-11.665-10.578-22.534-18.015-32.194
					c-13.749-17.858-32.073-32.193-53.877-38.592C655.154,14.969,654.758,16.416,655.683,16.688z"/>
			</g>
		</g>
		<path style="clip-path:url(#SVGID_00000083800589732642258260000011988902475751668414_);fill:#FFFFFF;" d="M150.092,316.235
			C91.212,292.672-17.517,421.428,27.248,471.524s115.749,14.091,145.608-38.421S183.698,329.684,150.092,316.235z"/>
		<g style="clip-path:url(#SVGID_00000083800589732642258260000011988902475751668414_);">
			<g>
				<path style="fill:#DFC4C4;" d="M128.173,491.163c31.7-24.362,52.413-63.319,60.88-101.955
					c3.041-13.876,4.888-28.605-0.935-42.025c-7.859-18.11-26.038-31.49-45.506-34.228c-20.54-2.888-40.524,7.962-55.653,21.009
					c-14.992,12.929-25.298,29.903-34.233,47.341c-4.158,8.116-8.079,16.356-12.432,24.372
					c-5.892,10.85-12.237,21.241-16.477,32.911c-5.444,14.982-9.798,34.987-1.348,49.796c9.194,16.115,33.27,19.323,49.899,18.91
					C91.083,506.83,112.82,502.55,128.173,491.163c0.767-0.569,0.02-1.871-0.757-1.295c-12.848,9.529-30.264,13.698-45.908,15.331
					c-17.699,1.847-38.881,0.473-52.978-11.728c-12.109-10.48-9.993-30.504-6.448-44.276c5.238-20.348,17.203-37.75,26.507-56.335
					c7.941-15.862,15.888-31.913,27.378-45.575c12.717-15.121,31.551-29.542,51.51-32.744c20.811-3.339,42.457,7.3,54.306,24.377
					c9.311,13.42,9.764,28.241,7.044,43.726c-7.087,40.353-28.611,82.017-61.411,107.225
					C126.661,490.448,127.408,491.751,128.173,491.163z"/>
			</g>
		</g>
		<path style="clip-path:url(#SVGID_00000083800589732642258260000011988902475751668414_);fill:#DFC4C4;" d="M587.493,499.5
			c0,0-176.723-121.004-97.721-169.156C553.5,291.5,718.5,382.844,749.5,284.5v215C749.5,499.5,589.226,497.767,587.493,499.5z"/>
		<path style="clip-path:url(#SVGID_00000083800589732642258260000011988902475751668414_);fill:#DFC4C4;" d="M-0.515,76.119
			c18.701-6.268,55.41,8.647,61.375,19.107C74.2,118.616,9.539,125.261-7.547,109.384S-12.243,80.05-0.515,76.119z"/>
		<path style="clip-path:url(#SVGID_00000083800589732642258260000011988902475751668414_);fill:#DFC4C4;" d="M632.485-4.881
			c18.701-6.268,55.41,8.647,61.375,19.107c13.339,23.389-51.322,30.035-68.407,14.158C608.367,12.507,620.757-0.95,632.485-4.881z"
			/>
		<path style="clip-path:url(#SVGID_00000083800589732642258260000011988902475751668414_);fill:#939AA1;" d="M-0.5,54.5
			c58,0,126.879,85.734,208,49c53-24,33-81-19-112l-189,8V54.5z"/>
		<g style="clip-path:url(#SVGID_00000083800589732642258260000011988902475751668414_);">
			<g>
				<path style="fill:#FFFFFF;" d="M94.48,10.84c3.041,0.533,6.082,1.066,9.122,1.6c0.944,0.166,1.349-1.28,0.399-1.446
					c-3.041-0.533-6.082-1.066-9.122-1.6C93.935,9.228,93.53,10.674,94.48,10.84L94.48,10.84z"/>
			</g>
		</g>
		<path style="clip-path:url(#SVGID_00000083800589732642258260000011988902475751668414_);fill:#DFC4C4;" d="M686.5,300.5
			c-11-1-11,15,1,15C696.5,315.5,699.447,301.677,686.5,300.5z"/>
		<g style="clip-path:url(#SVGID_00000083800589732642258260000011988902475751668414_);">
			<g>
				<path style="fill:#FFFFFF;" d="M671.852,359.71c-20.725,6.634-32.241,29.526-27.819,50.38
					c5.156,24.312,27.231,40.74,50.911,44.487c12.624,1.997,27.066,1.424,39.13-3.135c10.728-4.055,16.377-13.196,18.5-24.121
					c4.527-23.303-0.12-52.061-15.258-70.778c-7.317-9.047-17.333-16.213-28.64-19.255c-12.329-3.317-25.365-0.731-36.973,4.041
					c-10.604,4.359-19.431,11.563-22.608,22.938c-3.313,11.863-2.602,25.827-1.114,37.937c2.788,22.689,14.32,42.675,37.694,48.405
					c11.564,2.835,23.799,2.273,35.432,0.151c11.745-2.142,22.986-6.343,29.432-17c11.889-19.655,10.829-48.759-4.821-66.107
					c-19.518-21.636-51.716-14.965-76.088-7.217c-0.917,0.291-0.525,1.74,0.399,1.446c21-6.676,46.842-12.948,66.767,0.086
					c16.972,11.103,22.639,33.386,19.18,52.499c-1.95,10.775-6.589,22.147-16.117,28.275c-9.288,5.973-21.893,7.632-32.7,8.168
					c-11.148,0.553-22.762-0.802-32.732-6.121c-10.162-5.422-17.164-14.67-21.018-25.391c-3.533-9.83-4.655-20.4-4.826-30.788
					c-0.194-11.772-0.378-25.421,7.589-34.952c7.301-8.735,19.307-12.954,30.118-15.222c12.171-2.553,24.159-0.601,34.815,5.846
					c21.139,12.789,30,37.261,31.128,60.925c0.511,10.708,0.4,22.752-4.646,32.5c-6.187,11.952-19.584,14.849-31.943,16.001
					c-25.911,2.415-53.432-7.673-65.8-31.809c-11.44-22.326-2.801-52.674,22.405-60.742
					C673.167,360.864,672.775,359.415,671.852,359.71L671.852,359.71z"/>
			</g>
		</g>
		<g style="clip-path:url(#SVGID_00000083800589732642258260000011988902475751668414_);">
			<g>
				<path style="fill:#FFFFFF;" d="M-18.148,2.71c-20.725,6.634-32.241,29.526-27.819,50.38
					c5.156,24.312,27.231,40.74,50.911,44.487c12.624,1.997,27.066,1.424,39.13-3.135c10.728-4.055,16.377-13.196,18.5-24.121
					c4.527-23.303-0.12-52.061-15.258-70.778c-7.317-9.047-17.333-16.213-28.64-19.255C6.348-23.028-6.688-20.442-18.297-15.67
					C-28.901-11.311-37.728-4.107-40.904,7.268c-3.312,11.863-2.602,25.827-1.114,37.937c2.788,22.689,14.32,42.675,37.694,48.405
					c11.564,2.835,23.799,2.273,35.432,0.151c11.745-2.142,22.986-6.343,29.432-17C72.429,57.105,71.369,28,55.719,10.652
					C36.201-10.984,4.003-4.313-20.369,3.435c-0.917,0.291-0.525,1.74,0.399,1.446c21-6.676,46.842-12.948,66.767,0.086
					c16.972,11.103,22.639,33.386,19.18,52.499c-1.95,10.775-6.589,22.147-16.117,28.275c-9.288,5.973-21.893,7.632-32.7,8.168
					c-11.148,0.553-22.762-0.802-32.732-6.121c-10.162-5.422-17.164-14.67-21.018-25.391c-3.533-9.83-4.655-20.4-4.826-30.788
					c-0.194-11.772-0.378-25.421,7.589-34.952c7.301-8.735,19.307-12.954,30.118-15.222c12.171-2.553,24.159-0.601,34.815,5.846
					c21.139,12.789,30,37.261,31.128,60.925c0.511,10.708,0.4,22.752-4.646,32.5c-6.187,11.952-19.584,14.849-31.943,16.001
					c-25.911,2.415-53.432-7.673-65.8-31.809c-11.44-22.326-2.801-52.674,22.405-60.742C-16.833,3.864-17.225,2.415-18.148,2.71
					L-18.148,2.71z"/>
			</g>
		</g>
		<g style="clip-path:url(#SVGID_00000083800589732642258260000011988902475751668414_);">
			<g>
				<path style="fill:#FFFFFF;" d="M566.011,465.772c0,1.906,0,3.811,0,5.717c0,0.965,1.5,0.967,1.5,0c0-1.906,0-3.811,0-5.717
					C567.511,464.807,566.011,464.805,566.011,465.772L566.011,465.772z"/>
			</g>
		</g>
		<g style="clip-path:url(#SVGID_00000083800589732642258260000011988902475751668414_);">
			<g>
				<path style="fill:#FFFFFF;" d="M557.727,292.236c-2.109,2.775-2.781,7.154-0.212,9.899c1.938,2.07,5.584,2.306,7.771,0.491
					c3.099-2.571,1.114-6.698-1.214-9.015c-1.253-1.248-2.932-2.679-4.832-2.356c-1.435,0.244-2.492,1.49-2.3,2.947
					c0.125,0.943,1.626,0.956,1.5,0c-0.313-2.361,2.134-1.344,2.853-0.959c0.56,0.3,1.038,0.771,1.497,1.209
					c0.848,0.808,1.646,1.729,2.146,2.798c1.145,2.446-0.106,4.766-2.745,5.059c-5.439,0.604-5.607-6.108-3.169-9.315
					C559.606,292.225,558.304,291.477,557.727,292.236L557.727,292.236z"/>
			</g>
		</g>
		<g style="clip-path:url(#SVGID_00000083800589732642258260000011988902475751668414_);">
			<path style="fill:#FFFFFF;" d="M651.375,261.615c-2.391,2.914-2.621,7.842,0.872,9.98c2.575,1.577,5.709,0.748,6.687-2.108
				c0.889-2.596-1.037-5.197-3.066-6.98c-0.893-0.785-1.93-1.552-3.119-1.564c-1.189-0.012-2.424,1.127-2.057,2.259"/>
		</g>
		<g style="clip-path:url(#SVGID_00000083800589732642258260000011988902475751668414_);">
			<path style="fill:#FFFFFF;" d="M255.375,33.615c-2.391,2.914-2.621,7.842,0.872,9.98c2.575,1.577,5.709,0.748,6.687-2.108
				c0.889-2.596-1.037-5.197-3.066-6.98c-0.893-0.785-1.93-1.552-3.119-1.564c-1.189-0.012-2.424,1.127-2.057,2.259"/>
		</g>
		<g style="clip-path:url(#SVGID_00000083800589732642258260000011988902475751668414_);">
			<path style="fill:#FFFFFF;" d="M155.375,491.615c-2.391,2.914-2.621,7.842,0.872,9.98c2.575,1.577,5.709,0.748,6.687-2.108
				c0.889-2.596-1.037-5.197-3.066-6.98c-0.893-0.785-1.93-1.552-3.119-1.564c-1.189-0.012-2.424,1.127-2.057,2.259"/>
		</g>
		<g style="clip-path:url(#SVGID_00000083800589732642258260000011988902475751668414_);">
			<path style="fill:#FFFFFF;" d="M355.375,470.615c-2.392,2.914-2.621,7.842,0.872,9.98c2.575,1.577,5.709,0.748,6.687-2.108
				c0.889-2.596-1.037-5.197-3.066-6.98c-0.893-0.785-1.93-1.552-3.119-1.564c-1.189-0.012-2.424,1.127-2.057,2.259"/>
		</g>
		<g style="clip-path:url(#SVGID_00000083800589732642258260000011988902475751668414_);">
			<path style="fill:#FFFFFF;" d="M20.375,168.615c-2.391,2.914-2.621,7.842,0.872,9.98c2.575,1.577,5.709,0.748,6.687-2.108
				c0.889-2.596-1.037-5.197-3.066-6.98c-0.893-0.785-1.93-1.552-3.119-1.564c-1.189-0.012-2.424,1.127-2.057,2.259"/>
		</g>
		<g style="clip-path:url(#SVGID_00000083800589732642258260000011988902475751668414_);">
			<path style="fill:#FFFFFF;" d="M742.375,77.615c-2.073,2.527-2.521,6.566-0.329,8.99s7.045,1.825,7.95-1.315
				c0.729-2.53-1.151-5.045-3.128-6.782c-0.893-0.785-1.93-1.552-3.119-1.564c-1.189-0.012-2.424,1.127-2.057,2.259"/>
		</g>
		<g style="clip-path:url(#SVGID_00000083800589732642258260000011988902475751668414_);">
			<g>
				<path style="fill:#D0D4D7;" d="M451.029,73.937c0.39,1.556,1.242,2.48,2.72,3.128c4.079,1.789,8.057-1.451,10.271,4.475
					c1.454,3.891,3.157,7.398,8.1,5.92c0.923-0.276,0.53-1.724-0.399-1.446c-6.415,1.918-4.968-5.788-8.157-8.524
					c-2.758-2.366-10.029,0.276-11.088-3.952C452.241,72.602,450.794,72.999,451.029,73.937L451.029,73.937z"/>
			</g>
		</g>
		<g style="clip-path:url(#SVGID_00000083800589732642258260000011988902475751668414_);">
			<g>
				<path style="fill:#D0D4D7;" d="M458.733,83.191c0.493,3.83,2.619,7.134,6.248,8.722c2.054,0.899,3.914,0.84,6.104,0.66
					c1.423-0.117,3.198-0.526,4.605-0.043c2.806,0.962,3.422,3.746,4.028,6.169c0.234,0.936,1.681,0.539,1.446-0.399
					c-0.817-3.267-1.989-6.556-5.65-7.318c-2.096-0.437-4.181,0.233-6.281,0.236c-4.688,0.007-8.404-3.392-9.001-8.028
					C460.111,82.247,458.61,82.235,458.733,83.191L458.733,83.191z"/>
			</g>
		</g>
		<g style="clip-path:url(#SVGID_00000083800589732642258260000011988902475751668414_);">
			<g>
				<path style="fill:#DFC4C4;" d="M717.029,235.099c0.47,1.877,1.479,2.979,3.26,3.768c5.158,2.285,10.101-1.899,12.927,5.705
					c1.769,4.76,3.818,9.057,9.866,7.248c0.923-0.276,0.53-1.724-0.399-1.446c-8.184,2.447-6.305-7.197-10.325-10.654
					c-3.521-3.028-12.496,0.515-13.883-5.02C718.241,233.764,716.794,234.161,717.029,235.099L717.029,235.099z"/>
			</g>
		</g>
		<g style="clip-path:url(#SVGID_00000083800589732642258260000011988902475751668414_);">
			<g>
				<path style="fill:#DFC4C4;" d="M726.635,246.679c0.585,4.749,3.35,8.927,7.887,10.792c2.441,1.003,4.714,0.928,7.319,0.714
					c1.893-0.156,3.913-0.664,5.787-0.047c3.578,1.177,4.381,4.752,5.148,7.816c0.234,0.936,1.681,0.539,1.446-0.399
					c-1.09-4.357-2.678-8.427-7.628-9.116c-2.607-0.363-5.216,0.585-7.825,0.452c-5.622-0.285-9.96-4.724-10.636-10.213
					C728.018,245.734,726.517,245.722,726.635,246.679L726.635,246.679z"/>
			</g>
		</g>
		<g style="clip-path:url(#SVGID_00000083800589732642258260000011988902475751668414_);">
			<g>
				<path style="fill:#DFC4C4;" d="M39.655,350.027c-13.507-0.438-7.852,20.969-18.007,24.878
					c-5.439,2.094-11.684-0.16-16.727,3.413c-3.832,2.715-5.543,7.318-4.952,11.876c0.122,0.944,1.624,0.956,1.5,0
					c-1.009-7.778,4.684-12.229,11.891-12.774c3.954-0.299,8.17,0.014,11.556-2.446c7.257-5.273,3.296-23.819,14.74-23.448
					C40.621,351.558,40.62,350.058,39.655,350.027L39.655,350.027z"/>
			</g>
		</g>
		<g style="clip-path:url(#SVGID_00000083800589732642258260000011988902475751668414_);">
			<g>
				<path style="fill:#DFC4C4;" d="M14.626,363.018c-9.606-1.081-19.288,4.123-23.491,12.919c-2.472,5.172-1.831,10.819-3.022,16.28
					c-1.996,9.157-9.869,10.644-18.018,10.911c-0.963,0.031-0.967,1.532,0,1.5c9.895-0.323,18.046-2.78,19.747-13.694
					c1.142-7.327,0.937-14.026,6.408-19.768c4.777-5.015,11.528-7.418,18.376-6.648C15.584,364.625,15.576,363.125,14.626,363.018
					L14.626,363.018z"/>
			</g>
		</g>
		<path style="opacity:0.37;clip-path:url(#SVGID_00000083800589732642258260000011988902475751668414_);fill:#C2C6CA;" d="
			M10.5,210.5c-47,0-57.309,119.995-14,103C36,298,59.085,210.5,10.5,210.5z"/>
	</g>
	<g style="opacity:0.3;">
		<path style="fill:#8DB5C4;" d="M726.821,470.218c-1.848-1.752-5.011-2.251-7.007-0.196c-1.139,1.173-1.441,2.9-1.081,4.495
			c0.344,1.524,1.088,2.724,2.083,3.655c4.581,4.284,11.163-2.604,6.828-7.136C727.388,470.769,727.114,470.496,726.821,470.218z"/>
	</g>
	<g style="opacity:0.37;">
		<path style="fill:#C2C6CA;" d="M243.821,396.218c-1.848-1.752-5.011-2.251-7.007-0.196c-1.139,1.173-1.441,2.9-1.081,4.495
			c0.344,1.524,1.088,2.724,2.083,3.655c4.58,4.284,11.163-2.604,6.828-7.136C244.388,396.769,244.114,396.496,243.821,396.218z"/>
	</g>
	<g style="opacity:0.37;">
		<path style="fill:#C2C6CA;" d="M138.821,162.218c-1.848-1.752-5.011-2.251-7.007-0.196c-1.139,1.173-1.441,2.9-1.081,4.495
			c0.344,1.523,1.088,2.724,2.083,3.655c4.58,4.284,11.163-2.604,6.828-7.136C139.388,162.769,139.114,162.496,138.821,162.218z"/>
	</g>
	<g>
		<g>
			<g>
				<path style="fill:#DFC4C4;" d="M444.068,406.511c1.453,1.415,2.906,2.829,4.359,4.244c0.692,0.674,1.754-0.386,1.061-1.061
					c-1.453-1.415-2.906-2.829-4.359-4.244C444.437,404.777,443.375,405.836,444.068,406.511L444.068,406.511z"/>
			</g>
		</g>
		<g>
			<g>
				<path style="fill:#DFC4C4;" d="M450.581,407.291c1.966,1.628,3.932,3.256,5.897,4.885c0.738,0.611,1.805-0.444,1.061-1.061
					c-1.966-1.628-3.932-3.256-5.897-4.885C450.904,405.619,449.837,406.675,450.581,407.291L450.581,407.291z"/>
			</g>
		</g>
		<g>
			<g>
				<path style="fill:#DFC4C4;" d="M465.971,413.435c1.275,1.164,2.551,2.328,3.826,3.492c0.712,0.65,1.776-0.408,1.061-1.061
					c-1.275-1.164-2.551-2.328-3.826-3.492C466.32,411.724,465.256,412.782,465.971,413.435L465.971,413.435z"/>
			</g>
		</g>
		<g>
			<g>
				<path style="fill:#DFC4C4;" d="M464.674,431.081c1.468,1.398,2.936,2.797,4.405,4.195c0.699,0.666,1.761-0.393,1.061-1.061
					c-1.468-1.398-2.936-2.797-4.405-4.195C465.036,429.355,463.974,430.414,464.674,431.081L464.674,431.081z"/>
			</g>
		</g>
		<g>
			<g>
				<path style="fill:#DFC4C4;" d="M472.133,430.35c1.61,0.828,2.993,1.927,4.168,3.304c0.627,0.736,1.684-0.33,1.061-1.061
					c-1.249-1.465-2.76-2.658-4.472-3.539C472.033,428.614,471.274,429.908,472.133,430.35L472.133,430.35z"/>
			</g>
		</g>
		<g>
			<g>
				<path style="fill:#DFC4C4;" d="M488.507,438.056c1.581,1.142,3.162,2.285,4.743,3.427c0.784,0.566,1.533-0.734,0.757-1.295
					c-1.581-1.142-3.162-2.285-4.743-3.427C488.481,436.195,487.731,437.496,488.507,438.056L488.507,438.056z"/>
			</g>
		</g>
	</g>
</g>
</svg>
